<?xml version="1.0"?>
<svg xmlns="http://www.w3.org/2000/svg" xmlns:xlink="http://www.w3.org/1999/xlink" xmlns:svgjs="http://svgjs.com/svgjs" version="1.1" width="512" height="512" x="0" y="0" viewBox="0 0 24 24" style="enable-background:new 0 0 512 512" xml:space="preserve"><g><g xmlns="http://www.w3.org/2000/svg" id="_01_align_center" data-name="01 align center"><path d="M12,2a10.032,10.032,0,0,1,7.122,3H15V7h5.143A1.859,1.859,0,0,0,22,5.143V0H20V3.078A11.982,11.982,0,0,0,0,12H2A10.011,10.011,0,0,1,12,2Z" fill="#ffffff" data-original="#000000"/><path d="M22,12A9.986,9.986,0,0,1,4.878,19H9V17H3.857A1.859,1.859,0,0,0,2,18.857V24H4V20.922A11.982,11.982,0,0,0,24,12Z" fill="#ffffff" data-original="#000000"/></g></g></svg>
